solid csg.js
facet normal 0.6652506431432392 -0.7437416745038318 -0.06549735417360751
outer loop
vertex -14.283338128297427 3.62898053531762 -69.5067727838153
vertex -17.019857553522286 2.3849646634371475 -83.17518536686619
vertex -16.75004061458676 2.7549307657312605 -84.6357530108433
endloop
endfacet
facet normal -0.6652506431432389 0.743741674503832 0.06549735417360748
outer loop
vertex -14.527845842207864 3.446925175465879 -71.4471312687794
vertex -16.62786894022839 2.702804344050958 -84.32716366135553
vertex -16.857577146690762 2.3878343123504546 -83.08371180381619
endloop
endfacet
facet normal 0.706428255428056 -0.7038512076729543 -0.07451575263121722
outer loop
vertex -16.806598395726237 2.388735783576484 -83.05497630775963
vertex -16.62786894022839 2.702804344050958 -84.32716366135553
vertex -14.527845842207864 3.446925175465879 -71.4471312687794
endloop
endfacet
facet normal -0.706428255428056 0.7038512076729543 0.07451575263121722
outer loop
vertex -16.75004061458676 2.7549307657312605 -84.6357530108433
vertex -16.959977539883077 2.3860235381307944 -83.14143244308441
vertex -14.283338128297427 3.62898053531762 -69.5067727838153
endloop
endfacet
facet normal 0.12584845335127512 0.09262063512277485 0.9877163483199748
outer loop
vertex -19.284758329644884 1.4530791355814792 -94.51657832233221
vertex -19.288526932405887 1.353632420966953 -94.5067727838153
vertex -18.293132516298208 0.5502097875280381 -94.55826057506937
endloop
endfacet
facet normal 0.12584845335127512 0.09262063512277485 0.9877163483199748
outer loop
vertex -19.284758329644884 1.4530791355814792 -94.51657832233221
vertex -18.293132516298208 0.5502097875280381 -94.55826057506937
vertex -18.289363913537205 0.6496565021425642 -94.56806611358627
endloop
endfacet
facet normal 0.6221257250244007 0.7769571995330109 -0.09642143100309628
outer loop
vertex -18.369223651465422 1.8473775296504238 -84.5967244972726
vertex -18.357648538558358 1.8420929450640449 -84.56462292569856
vertex -18.293132516298208 0.5502097875280381 -94.55826057506937
endloop
endfacet
facet normal 0.6221257250244007 0.7769571995330109 -0.09642143100309628
outer loop
vertex -18.369223651465422 1.8473775296504238 -84.5967244972726
vertex -18.293132516298208 0.5502097875280381 -94.55826057506937
vertex -19.288526932405887 1.353632420966953 -94.5067727838153
endloop
endfacet
facet normal 0.6221257250244007 0.7769571995330109 -0.09642143100309628
outer loop
vertex -18.369223651465422 1.8473775296504238 -84.5967244972726
vertex -19.288526932405887 1.353632420966953 -94.5067727838153
vertex -19.030579482147083 2.1046914363578004 -86.79047521332339
endloop
endfacet
facet normal -0.9992612091980438 0.03676304425634059 -0.011203319555807131
outer loop
vertex -18.357648538558358 1.8420929450640449 -84.56462292569856
vertex -18.349539007179786 1.8546159410014256 -85.24684542586398
vertex -18.289363913537205 0.6496565021425642 -94.56806611358627
endloop
endfacet
facet normal -0.9992612091980438 0.03676304425634059 -0.011203319555807131
outer loop
vertex -18.357648538558358 1.8420929450640449 -84.56462292569856
vertex -18.289363913537205 0.6496565021425642 -94.56806611358627
vertex -18.293132516298208 0.5502097875280381 -94.55826057506937
endloop
endfacet
facet normal 0.979972417666599 -0.05597966824499988 -0.19110294962626928
outer loop
vertex -18.264051456802086 1.917090294665276 -89.41833471559272
vertex -18.163173262951716 1.865215789743832 -88.88583762283582
vertex -19.288526932405887 1.353632420966953 -94.5067727838153
endloop
endfacet
facet normal 0.979972417666599 -0.05597966824499988 -0.19110294962626928
outer loop
vertex -18.264051456802086 1.917090294665276 -89.41833471559272
vertex -19.288526932405887 1.353632420966953 -94.5067727838153
vertex -19.284758329644884 1.4530791355814792 -94.51657832233221
endloop
endfacet
facet normal -0.6221257250244008 -0.7769571995330109 0.09642143100309628
outer loop
vertex -18.349539007179786 1.8546159410014256 -85.24684542586398
vertex -18.462766436019454 1.9063095987657643 -85.56086209595838
vertex -19.050555706744873 2.1350009424485537 -87.51058881449627
endloop
endfacet
facet normal -0.6221257250244008 -0.7769571995330109 0.09642143100309628
outer loop
vertex -18.349539007179786 1.8546159410014256 -85.24684542586398
vertex -19.050555706744873 2.1350009424485537 -87.51058881449627
vertex -19.284758329644884 1.4530791355814792 -94.51657832233221
endloop
endfacet
facet normal -0.6221257250244008 -0.7769571995330109 0.09642143100309628
outer loop
vertex -18.349539007179786 1.8546159410014256 -85.24684542586398
vertex -19.284758329644884 1.4530791355814792 -94.51657832233221
vertex -18.289363913537205 0.6496565021425642 -94.56806611358627
endloop
endfacet
facet normal -0.037686027609983005 -0.9944671461452603 0.0980553851692047
outer loop
vertex -19.288526932405887 1.353632420966953 -94.5067727838153
vertex -18.163173262951716 1.865215789743832 -88.88583762283582
vertex -18.64811176317541 2.023077382430063 -87.47120076615849
endloop
endfacet
facet normal -0.037686027609983005 -0.9944671461452603 0.0980553851692047
outer loop
vertex -19.288526932405887 1.353632420966953 -94.5067727838153
vertex -18.64811176317541 2.023077382430063 -87.47120076615849
vertex -19.030579482147083 2.1046914363578004 -86.79047521332339
endloop
endfacet
facet normal 0.03768602760998299 0.9944671461452602 -0.0980553851692047
outer loop
vertex -18.264051456802086 1.917090294665276 -89.41833471559272
vertex -19.284758329644884 1.4530791355814792 -94.51657832233221
vertex -19.050555706744873 2.1350009424485537 -87.51058881449627
endloop
endfacet
facet normal 0.03768602760998299 0.9944671461452602 -0.0980553851692047
outer loop
vertex -18.264051456802086 1.917090294665276 -89.41833471559272
vertex -19.050555706744873 2.1350009424485537 -87.51058881449627
vertex -18.710632156999093 2.0624653072978325 -88.11559319746614
endloop
endfacet
endsolid csg.js
